HIERARCHY
ROOT Hips
{
    OFFSET 0.000000 0.000000 0.000000
    CHANNELS 6 Xposition Yposition Zposition Zrotation Xrotation Yrotation
    JOINT Spine
    {
        OFFSET -0.000000 8.359812 0.000000
        CHANNELS 3 Zrotation Xrotation Yrotation
        JOINT Spine1
        {
            OFFSET -0.000000 28.141317 0.000000
            CHANNELS 3 Zrotation Xrotation Yrotation
            JOINT Neck
            {
                OFFSET -0.000000 28.025745 2.547795
                CHANNELS 3 Zrotation Xrotation Yrotation
                JOINT Head
                {
                    OFFSET -0.000000 14.272848 -2.038978
                    CHANNELS 3 Zrotation Xrotation Yrotation
                    End Site
                    {
                        OFFSET -0.000000 25.487228 0.000000
                    }
                }
            }
            JOINT LeftShoulder
            {
                OFFSET 4.059574 26.120710 -0.180480
                CHANNELS 3 Zrotation Xrotation Yrotation
                JOINT LeftArm
                {
                    OFFSET 11.584161 0.000000 0.000000
                    CHANNELS 3 Zrotation Xrotation Yrotation
                    JOINT LeftForeArm
                    {
                        OFFSET 30.766815 0.000000 0.000000
                        CHANNELS 3 Zrotation Xrotation Yrotation
                        JOINT LeftHand
                        {
                            OFFSET 29.436810 0.000000 0.000000
                            CHANNELS 3 Zrotation Xrotation Yrotation
                            End Site
                            {
                                OFFSET 15.292337 0.000000 0.000000
                            }
                        }
                    }
                }
            }
            JOINT RightShoulder
            {
                OFFSET -4.095355 26.120710 -0.180480
                CHANNELS 3 Zrotation Xrotation Yrotation
                JOINT RightArm
                {
                    OFFSET -11.584161 0.000000 0.000000
                    CHANNELS 3 Zrotation Xrotation Yrotation
                    JOINT RightForeArm
                    {
                        OFFSET -30.766815 0.000000 0.000000
                        CHANNELS 3 Zrotation Xrotation Yrotation
                        JOINT RightHand
                        {
                            OFFSET -29.436810 0.000000 0.000000
                            CHANNELS 3 Zrotation Xrotation Yrotation
                            End Site
                            {
                                OFFSET -15.292337 0.000000 0.000000
                            }
                        }
                    }
                }
            }
        }
    }
    JOINT LeftUpLeg
    {
        OFFSET 10.194892 0.000000 0.000000
        CHANNELS 3 Zrotation Xrotation Yrotation
        JOINT LeftLeg
        {
            OFFSET -0.000000 -32.520012 0.000000
            CHANNELS 3 Zrotation Xrotation Yrotation
            JOINT LeftFoot
            {
                OFFSET -0.000000 -49.106510 0.000000
                CHANNELS 3 Zrotation Xrotation Yrotation
                JOINT LeftToeBase
                {
                    OFFSET -0.000000 -6.626679 15.292337
                    CHANNELS 3 Zrotation Xrotation Yrotation
                    End Site
                    {
                        OFFSET -0.000000 0.000000 4.077957
                    }
                }
            }
        }
    }
    JOINT RightUpLeg
    {
        OFFSET -10.194892 0.000000 0.000000
        CHANNELS 3 Zrotation Xrotation Yrotation
        JOINT RightLeg
        {
            OFFSET -0.000000 -32.520012 0.000000
            CHANNELS 3 Zrotation Xrotation Yrotation
            JOINT RightFoot
            {
                OFFSET -0.000000 -49.106510 0.000000
                CHANNELS 3 Zrotation Xrotation Yrotation
                JOINT RightToeBase
                {
                    OFFSET -0.000000 -6.626679 15.292337
                    CHANNELS 3 Zrotation Xrotation Yrotation
                    End Site
                    {
                        OFFSET -0.000000 0.000000 4.077957
                    }
                }
            }
        }
    }
}
MOTION
Frames:    5
Frame Time:    0.008333
93.730568    130.355911    30.960089    -4.154105    -0.847176    82.213707    1.870934    -9.944406    -0.261848    1.255287    3.338434    -0.461224    6.681475    31.036045    16.708395    -18.710369    -5.000522    14.983604    14.787397    -2.198721    0.418251    -18.006996    -7.454960    7.217906    3.703843    -5.811649    0.975907    0.789882    -5.822268    3.028243    -15.666013    -0.797497    -0.622066    19.080402    -6.506987    14.048775    -4.571828    -3.371931    0.148947    -13.622704    -3.830219    3.892796    3.546765    -1.877472    -1.521393    -4.596452    2.467839    -11.215926    10.551809    -7.058125    37.896103    0.000000    0.000000    0.000000    0.702107    0.383571    0.524338    3.760419    0.912345    4.128542    -11.619410    -6.084501    -3.940039    0.000000    0.000000    0.000000    
93.721863    130.358856    30.966871    -4.146711    -0.848988    82.219414    1.891622    -9.918188    -0.275096    1.235759    3.322952    -0.475204    6.571822    31.020771    16.744356    -18.630592    -4.977954    15.022370    14.754018    -2.197255    0.451059    -17.955902    -7.466108    7.231738    3.711322    -5.830723    0.938427    0.759025    -5.841231    2.994845    -15.684743    -0.789512    -0.608590    19.105839    -6.552966    14.105280    -4.535315    -3.348428    0.094925    -13.689751    -3.806983    3.857327    3.558955    -1.885483    -1.540310    -4.606467    2.499815    -11.281282    10.557890    -7.060837    37.967220    0.000000    0.000000    0.000000    0.712698    0.376410    0.512385    3.752116    0.935660    4.120760    -11.656404    -6.092026    -3.741186    0.000000    0.000000    0.000000    
93.715874    130.358749    30.966106    -4.144515    -0.838709    82.185043    1.922381    -9.910406    -0.269205    1.195275    3.326396    -0.470596    6.510126    31.017694    16.771526    -18.626499    -4.958606    15.045480    14.732933    -2.203148    0.495138    -17.907595    -7.508856    7.240731    3.721676    -5.820778    0.905676    0.712276    -5.831799    2.951257    -15.703112    -0.804773    -0.557264    19.127184    -6.569128    14.108189    -4.498556    -3.357362    0.073460    -13.775162    -3.810776    3.783347    3.549839    -1.881286    -1.541552    -4.610213    2.489177    -11.207139    10.559368    -7.062968    37.938911    0.000000    0.000000    0.000000    0.711513    0.348017    0.493459    3.734953    0.978059    4.143921    -11.546036    -6.113221    -3.906312    0.000000    0.000000    0.000000    
93.709198    130.358856    30.963886    -4.143441    -0.832081    82.147781    1.948825    -9.895330    -0.246596    1.167195    3.311004    -0.449054    6.468514    31.033684    16.794806    -18.617992    -4.951149    15.067649    14.720829    -2.190158    0.533739    -17.883635    -7.556273    7.193986    3.721676    -5.820778    0.905676    0.712276    -5.831799    2.951257    -15.702751    -0.806648    -0.528199    19.117168    -6.587276    14.103743    -4.461561    -3.331099    0.053169    -13.829694    -3.776530    3.695677    3.549839    -1.881286    -1.541552    -4.610213    2.489177    -11.207139    10.559368    -7.062968    37.938911    0.000000    0.000000    0.000000    0.711513    0.348017    0.493459    3.734953    0.978059    4.143921    -11.546036    -6.113221    -3.906312    0.000000    0.000000    0.000000    
93.703537    130.356339    30.964031    -4.141245    -0.828341    82.116821    1.969403    -9.880541    -0.220303    1.140127    3.293150    -0.423457    6.483662    31.043791    16.791525    -18.658365    -4.919879    15.064782    14.727910    -2.191306    0.570806    -17.881500    -7.537401    7.136792    3.734107    -5.790351    0.910282    0.671030    -5.802889    2.916784    -15.687595    -0.787986    -0.524690    19.098654    -6.537552    14.125603    -4.466450    -3.349703    0.011797    -13.880747    -3.787240    3.603953    3.545856    -1.878260    -1.523536    -4.617280    2.500566    -11.221363    10.568801    -7.080334    37.989098    0.000000    0.000000    0.000000    0.707959    0.301244    0.486738    3.722724    1.041295    4.175064    -11.549591    -6.141582    -3.875034    0.000000    0.000000    0.000000    
